grf
version=1
nRows=17
nColumns=37
inDegrees=no
endheader
time	ground_force_1_vx	ground_force_1_vy	ground_force_1_vz	ground_force_1_px	ground_force_1_py	ground_force_1_pz	ground_moment_1_mx	ground_moment_1_my	ground_moment_1_mz	ground_force_2_vx	ground_force_2_vy	ground_force_2_vz	ground_force_2_px	ground_force_2_py	ground_force_2_pz	ground_moment_2_mx	ground_moment_2_my	ground_moment_2_mz	ground_force_3_vx	ground_force_3_vy	ground_force_3_vz	ground_force_3_px	ground_force_3_py	ground_force_3_pz	ground_moment_3_mx	ground_moment_3_my	ground_moment_3_mz	ground_force_4_vx	ground_force_4_vy	ground_force_4_vz	ground_force_4_px	ground_force_4_py	ground_force_4_pz	ground_moment_4_mx	ground_moment_4_my	ground_moment_4_mz
      4.47000000	      0.00000000	     -0.00000000	      0.00000000	      0.00000000	      0.00000000	      0.00000000	      0.00000000	      0.00000000	      0.00000000	     -8.18627644	     57.22171783	   -381.97369385	   -338.94174113	  -1163.67318872	      0.00000000	      0.00000000	      0.00000000	   7871.42144924	      4.99382978	    -64.89052625	   -477.35226440	   -362.93130525	   -700.10427315	      0.00000000	      0.00000000	     -0.00000000	  -8690.60415062	      0.00000000	     -0.00000000	      0.00000000	      0.00000000	      0.00000000	      0.00000000	      0.00000000	      0.00000000	      0.00000000
      4.48000000	      0.00000000	     -0.00000000	      0.00000000	      0.00000000	      0.00000000	      0.00000000	      0.00000000	      0.00000000	      0.00000000	     -7.65095091	     56.99659729	   -378.87835693	   -338.54576021	  -1165.51904691	      0.00000000	      0.00000000	      0.00000000	   7747.95109544	      4.36288792	    -64.75579109	   -473.69702148	   -363.09517955	   -699.75826746	      0.00000000	      0.00000000	     -0.00000000	  -8519.80570154	      0.00000000	     -0.00000000	      0.00000000	      0.00000000	      0.00000000	      0.00000000	      0.00000000	      0.00000000	      0.00000000
      4.49000000	      0.00000000	     -0.00000000	      0.00000000	      0.00000000	      0.00000000	      0.00000000	      0.00000000	      0.00000000	      0.00000000	     -7.16237354	     56.06302643	   -374.01757812	   -338.39666418	  -1165.24103772	      0.00000000	      0.00000000	      0.00000000	   7688.37540692	      4.19502931	    -64.82812537	   -470.14172363	   -362.69851926	   -698.86760399	      0.00000000	      0.00000000	     -0.00000000	  -8465.58382397	      0.00000000	     -0.00000000	      0.00000000	      0.00000000	      0.00000000	      0.00000000	      0.00000000	      0.00000000	      0.00000000
      4.50000000	      0.00000000	     -0.00000000	      0.00000000	      0.00000000	      0.00000000	      0.00000000	      0.00000000	      0.00000000	      0.00000000	     -6.06224394	     55.63457108	   -369.05691528	   -338.83256529	  -1164.86051946	      0.00000000	      0.00000000	      0.00000000	   7699.98185566	      3.72584729	    -64.97942385	   -466.11743164	   -362.76874005	   -699.08621572	      0.00000000	      0.00000000	     -0.00000000	  -8311.83728061	      0.00000000	     -0.00000000	      0.00000000	      0.00000000	      0.00000000	      0.00000000	      0.00000000	      0.00000000	      0.00000000
      4.51000000	      0.00000000	     -0.00000000	      0.00000000	      0.00000000	      0.00000000	      0.00000000	      0.00000000	      0.00000000	      0.00000000	     -5.70185089	     54.99346161	   -364.38211060	   -338.95304292	  -1164.20053638	      0.00000000	      0.00000000	      0.00000000	   7695.55998209	      4.30452113	    -64.91644325	   -462.07791138	   -362.55492766	   -699.63785383	      0.00000000	      0.00000000	     -0.00000000	  -8224.08279677	      0.00000000	     -0.00000000	      0.00000000	      0.00000000	      0.00000000	      0.00000000	      0.00000000	      0.00000000	      0.00000000
      4.52000000	      0.00000000	     -0.00000000	      0.00000000	      0.00000000	      0.00000000	      0.00000000	      0.00000000	      0.00000000	      0.00000000	     -5.14573050	     54.88292694	   -361.55749512	   -340.11170206	  -1164.76092676	      0.00000000	      0.00000000	      0.00000000	   7687.06514858	      4.05946978	    -64.56315648	   -457.62414551	   -362.84487085	   -700.22432475	      0.00000000	      0.00000000	     -0.00000000	  -8126.67735005	      0.00000000	     -0.00000000	      0.00000000	      0.00000000	      0.00000000	      0.00000000	      0.00000000	      0.00000000	      0.00000000
      4.53000000	      0.00000000	     -0.00000000	      0.00000000	      0.00000000	      0.00000000	      0.00000000	      0.00000000	      0.00000000	      0.00000000	     -4.74636078	     54.70788193	   -361.66925049	   -339.25990007	  -1164.85435406	      0.00000000	      0.00000000	      0.00000000	   7779.41070559	      4.54552759	    -63.94490091	   -456.67623901	   -362.28530947	   -698.92661978	      0.00000000	      0.00000000	     -0.00000000	  -8079.51020383	      0.00000000	     -0.00000000	      0.00000000	      0.00000000	      0.00000000	      0.00000000	      0.00000000	      0.00000000	      0.00000000
      4.54000000	      0.00000000	     -0.00000000	      0.00000000	      0.00000000	      0.00000000	      0.00000000	      0.00000000	      0.00000000	      0.00000000	     -4.83892345	     54.29896545	   -360.41421509	   -340.72685398	  -1165.49930902	      0.00000000	      0.00000000	      0.00000000	   7630.01186548	      4.68031040	    -63.75027507	   -454.44027710	   -361.73713336	   -699.54875497	      0.00000000	      0.00000000	     -0.00000000	  -7979.71851878	      0.00000000	     -0.00000000	      0.00000000	      0.00000000	      0.00000000	      0.00000000	      0.00000000	      0.00000000	      0.00000000
      4.55000000	      0.00000000	     -0.00000000	      0.00000000	      0.00000000	      0.00000000	      0.00000000	      0.00000000	      0.00000000	      0.00000000	     -4.23886824	     54.14535522	   -360.68231201	   -340.05414136	  -1165.42914506	      0.00000000	      0.00000000	      0.00000000	   7699.98540737	      4.72916527	    -63.23832744	   -452.86160278	   -362.17342987	   -699.58940608	      0.00000000	      0.00000000	     -0.00000000	  -7860.02905820	      0.00000000	     -0.00000000	      0.00000000	      0.00000000	      0.00000000	      0.00000000	      0.00000000	      0.00000000	      0.00000000
      4.56000000	      0.00000000	     -0.00000000	      0.00000000	      0.00000000	      0.00000000	      0.00000000	      0.00000000	      0.00000000	      0.00000000	     -4.26042747	     54.08049774	   -358.11456299	   -340.98307430	  -1165.46365914	      0.00000000	      0.00000000	      0.00000000	   7712.80276876	      4.41405417	    -62.59313240	   -449.61175537	   -362.95369378	   -700.05830571	      0.00000000	      0.00000000	     -0.00000000	  -7725.82890761	      0.00000000	     -0.00000000	      0.00000000	      0.00000000	      0.00000000	      0.00000000	      0.00000000	      0.00000000	      0.00000000
      4.57000000	      0.00000000	     -0.00000000	      0.00000000	      0.00000000	      0.00000000	      0.00000000	      0.00000000	      0.00000000	      0.00000000	     -4.19068289	     53.69996262	   -358.03836060	   -340.97595259	  -1165.50106557	      0.00000000	      0.00000000	     -0.00000000	   7689.79967782	      4.61545827	    -62.46489374	   -447.69720459	   -362.84486142	   -700.25971687	      0.00000000	      0.00000000	     -0.00000000	  -7689.26634015	      0.00000000	     -0.00000000	      0.00000000	      0.00000000	      0.00000000	      0.00000000	      0.00000000	      0.00000000	      0.00000000
      4.58000000	      0.00000000	     -0.00000000	      0.00000000	      0.00000000	      0.00000000	      0.00000000	      0.00000000	      0.00000000	      0.00000000	     -3.79046607	     53.58916855	   -355.55807495	   -340.78948087	  -1165.78544325	      0.00000000	      0.00000000	      0.00000000	   7630.75309503	      4.52424461	    -61.99730722	   -445.61145020	   -362.75989383	   -699.66412514	      0.00000000	      0.00000000	     -0.00000000	  -7561.68545442	      0.00000000	     -0.00000000	      0.00000000	      0.00000000	      0.00000000	      0.00000000	      0.00000000	      0.00000000	      0.00000000
      4.59000000	      0.00000000	     -0.00000000	      0.00000000	      0.00000000	      0.00000000	      0.00000000	      0.00000000	      0.00000000	      0.00000000	     -3.36301565	     53.29828262	   -356.08526611	   -340.99430709	  -1165.91371233	      0.00000000	      0.00000000	      0.00000000	   7717.58159860	      4.25610146	    -61.64853705	   -442.55361938	   -362.66790925	   -699.84918617	      0.00000000	      0.00000000	     -0.00000000	  -7579.49961359	      0.00000000	     -0.00000000	      0.00000000	      0.00000000	      0.00000000	      0.00000000	      0.00000000	      0.00000000	      0.00000000
      4.60000000	      0.00000000	     -0.00000000	      0.00000000	      0.00000000	      0.00000000	      0.00000000	      0.00000000	      0.00000000	      0.00000000	     -3.77163124	     54.19128418	   -353.26681519	   -341.18397764	  -1165.53652869	      0.00000000	     -0.00000000	      0.00000000	   7769.80060641	      4.47729240	    -61.60179177	   -440.63616943	   -362.68774572	   -699.95825051	      0.00000000	      0.00000000	     -0.00000000	  -7485.05557663	      0.00000000	     -0.00000000	      0.00000000	      0.00000000	      0.00000000	      0.00000000	      0.00000000	      0.00000000	      0.00000000
      4.61000000	      0.00000000	     -0.00000000	      0.00000000	      0.00000000	      0.00000000	      0.00000000	      0.00000000	      0.00000000	      0.00000000	     -4.46052551	     54.14613724	   -356.18893433	   -341.06984964	  -1166.44557999	      0.00000000	      0.00000000	      0.00000000	   7688.58843013	      3.81604182	    -61.47189364	   -439.93688965	   -362.30690790	   -699.88498394	      0.00000000	      0.00000000	     -0.00000000	  -7220.76230294	      0.00000000	     -0.00000000	      0.00000000	      0.00000000	      0.00000000	      0.00000000	      0.00000000	      0.00000000	      0.00000000
      4.62000000	      0.00000000	     -0.00000000	      0.00000000	      0.00000000	      0.00000000	      0.00000000	      0.00000000	      0.00000000	      0.00000000	     -4.88449574	     54.79313660	   -357.24325562	   -341.51222909	  -1166.17113018	      0.00000000	      0.00000000	     -0.00000000	   7653.25669761	      3.57030544	    -61.62675507	   -438.53442383	   -361.94003091	   -700.32605289	      0.00000000	      0.00000000	     -0.00000000	  -7275.52418912	      0.00000000	     -0.00000000	      0.00000000	      0.00000000	      0.00000000	      0.00000000	      0.00000000	      0.00000000	      0.00000000
      4.63000000	      0.00000000	     -0.00000000	      0.00000000	      0.00000000	      0.00000000	      0.00000000	      0.00000000	      0.00000000	      0.00000000	     -4.84077454	     55.17108917	   -358.29980469	   -341.75197261	  -1166.23407804	      0.00000000	      0.00000000	      0.00000000	   7830.03157545	      2.90361816	    -62.04645945	   -438.79724121	   -362.01967950	   -699.70022773	      0.00000000	      0.00000000	     -0.00000000	  -7107.95766588	      0.00000000	     -0.00000000	      0.00000000	      0.00000000	      0.00000000	      0.00000000	      0.00000000	      0.00000000	      0.00000000
